<svg width="13" height="11" viewBox="0 0 13 11" fill="none" xmlns="http://www.w3.org/2000/svg">
<path d="M10.9081 11H2.09242C1.20484 11 0.535405 10.7076 0.207123 10.1769C-0.121236 9.64574 -0.0574726 8.95822 0.386271 8.24069L4.79397 1.11284C5.2374 0.395216 5.84356 0 6.50002 0C7.15656 0 7.76262 0.395119 8.20607 1.11284L12.6138 8.24069C13.0575 8.95822 13.1212 9.64574 12.7929 10.1769C12.4647 10.7076 11.7953 11 10.9078 11H10.9081ZM7.39981 8.49119C7.39981 8.06341 7.02833 7.71646 6.57007 7.71646C6.11191 7.71646 5.74032 8.06331 5.74032 8.49119C5.74032 8.91896 6.11181 9.26592 6.57007 9.26592C7.02833 9.26592 7.39981 8.91906 7.39981 8.49119ZM7.42218 3.82928C7.42218 3.39004 7.04071 3.03386 6.57028 3.03386C6.09985 3.03386 5.71838 3.39004 5.71838 3.82928L5.91959 6.65239H5.92231C5.95153 6.96415 6.22872 7.20971 6.57029 7.20971C6.88616 7.20971 7.14985 7.00048 7.21081 6.7224C7.21574 6.69991 7.21615 6.67583 7.21836 6.6525H7.22411L7.42218 3.82928Z" fill="#FF0000"/>
</svg>
