<svg width="24" height="24" viewBox="0 0 24 24" fill="none" xmlns="http://www.w3.org/2000/svg">
<path d="M21.4169 9.29936H20.0332C19.9345 9.02632 19.822 8.75925 19.696 8.49948L20.6791 7.51484C21.448 6.74509 21.4475 5.49289 20.6783 4.7236L19.4964 3.54176C18.727 2.77174 17.474 2.77227 16.7045 3.54176L15.6999 4.54635C15.4461 4.42659 15.1857 4.32008 14.9205 4.22784V2.80259C14.9205 1.7138 14.0349 0.828125 12.946 0.828125H11.2739C10.1852 0.828125 9.29948 1.71374 9.29948 2.80259V4.22678C9.03371 4.3203 8.77366 4.42734 8.52062 4.54711L7.51522 3.54172C6.74574 2.77196 5.49301 2.77143 4.72325 3.54146L3.54221 4.72223C3.16915 5.09529 2.96391 5.59148 2.96417 6.11914C2.96443 6.64679 3.17019 7.14276 3.54351 7.51553L4.52449 8.49545C4.39667 8.75862 4.28314 9.02699 4.18468 9.29952H2.80259C1.7138 9.29952 0.828125 10.1851 0.828125 11.274V12.946C0.828125 14.0348 1.71374 14.9205 2.80259 14.9205H4.13666C4.23513 15.2091 4.34995 15.4926 4.47959 15.7672L3.5425 16.704C3.16943 17.077 2.96394 17.573 2.96394 18.1006C2.9642 18.628 3.1697 19.124 3.54302 19.497L4.72352 20.676C5.49328 21.4455 6.74574 21.445 7.51477 20.6755L8.42977 19.7605C8.70957 19.8963 8.9995 20.0169 9.29956 20.1218V21.4172C9.29956 22.506 10.1852 23.3917 11.274 23.3917H12.9461C14.0349 23.3917 14.9206 22.5061 14.9206 21.4172V20.1224C15.2183 20.0182 15.5087 19.8974 15.7903 19.7605L16.7051 20.6752C17.4743 21.4447 18.7263 21.4455 19.4963 20.676L20.6768 19.4968C21.0499 19.124 21.2556 18.6281 21.2559 18.1007C21.2559 17.5731 21.0507 17.0771 20.6776 16.7043L19.7371 15.7638C19.8657 15.4908 19.9798 15.2094 20.079 14.9205H21.4172C22.506 14.9205 23.3917 14.0349 23.3917 12.9461V11.274C23.3914 10.1849 22.5058 9.29933 21.417 9.29933L21.4169 9.29936ZM21.9017 12.9458C21.9017 13.2129 21.6842 13.4303 21.4172 13.4303H19.5266C19.1847 13.4303 18.8868 13.6629 18.8039 13.9946L18.7987 14.0188C18.66 14.5264 18.4623 15.0175 18.1978 15.5054C18.011 15.7979 18.0508 16.1839 18.2991 16.4325L19.6238 17.7575C19.7155 17.8489 19.7659 17.9705 19.7659 18.1002C19.7656 18.2295 19.7153 18.3514 19.6238 18.4428L18.4433 19.622C18.2542 19.8109 17.9471 19.8103 17.7582 19.6215L16.4541 18.3173C16.2275 18.0908 15.881 18.0347 15.5941 18.1778C15.5713 18.1892 15.5484 18.2022 15.5248 18.2168C15.5237 18.2173 15.5224 18.2181 15.5211 18.2189C15.0522 18.4865 14.5451 18.6977 14.0328 18.8411C14.0268 18.8426 14.0008 18.8486 13.9948 18.8499C13.6631 18.9328 13.4306 19.2308 13.4306 19.5726V21.4169C13.4306 21.684 13.2131 21.9014 12.946 21.9014H11.274C11.0069 21.9014 10.7895 21.684 10.7895 21.4169V19.5726C10.7895 19.2308 10.5569 18.9328 10.2252 18.8499L10.2054 18.846C9.67494 18.6974 9.16806 18.4862 8.69892 18.2186C8.69736 18.2178 8.69554 18.2168 8.69398 18.216C8.6732 18.2035 8.64306 18.1867 8.62566 18.1778C8.33885 18.0344 7.99254 18.0903 7.76572 18.3173L6.46131 19.6215C6.27244 19.8106 5.96511 19.8103 5.77649 19.6217L4.59598 18.4428C4.50428 18.3511 4.45388 18.2295 4.45388 18.0998C4.45388 17.9705 4.50428 17.8486 4.59598 17.7569L5.91781 16.4351C6.14462 16.2085 6.20073 15.862 6.05759 15.5751C6.04382 15.5481 6.02823 15.5206 6.02277 15.513C5.75362 15.0228 5.54787 14.5092 5.41122 13.9862C5.32548 13.6584 5.02932 13.4298 4.69055 13.4298H2.80314C2.53607 13.4298 2.31862 13.2123 2.31862 12.9452V11.2732C2.31862 11.0061 2.53606 10.7887 2.80314 10.7887H4.72746C5.06051 10.7887 5.3533 10.5673 5.44421 10.247C5.59229 9.72377 5.8087 9.21247 6.08694 8.7267C6.25425 8.43496 6.20488 8.06708 5.96691 7.82939L4.59673 6.46107C4.50502 6.36962 4.45462 6.24804 4.45462 6.1184C4.45462 5.98876 4.50502 5.86718 4.59647 5.77548L5.77724 4.59471C5.96637 4.40557 6.27345 4.40584 6.4626 4.59471L7.85227 5.98438C8.08816 6.22053 8.45265 6.27015 8.7436 6.107C9.21201 5.84383 9.7168 5.63626 10.2441 5.48999C10.5665 5.40062 10.7897 5.1068 10.7897 4.77218V2.8019C10.7897 2.53484 11.0071 2.31738 11.2742 2.31738H12.9463C13.2133 2.31738 13.4308 2.53483 13.4308 2.8019V4.77531C13.4308 5.11044 13.6545 5.40349 13.9756 5.49285C13.9896 5.49753 14.0039 5.50195 14.0185 5.50584C14.4978 5.63756 14.9613 5.82435 15.4226 6.07531C15.5016 6.12831 15.591 6.16572 15.6837 6.18573C15.7336 6.19638 15.7856 6.20235 15.8386 6.20235H15.8388H15.8393H15.8404H15.8424H15.8437C15.9664 6.20209 16.0822 6.1717 16.1841 6.11896C16.2514 6.08415 16.3135 6.03869 16.368 5.98413L17.7577 4.59446C17.9465 4.40559 18.2536 4.40533 18.443 4.59446L19.6249 5.77629C19.8137 5.96516 19.8137 6.2725 19.6251 6.46165L18.2526 7.83622C18.0001 8.08875 17.964 8.48311 18.1601 8.77617C18.4202 9.23679 18.6272 9.73221 18.7758 10.249C18.8107 10.3703 18.8756 10.4807 18.965 10.5698C19.0216 10.6265 19.0876 10.6743 19.1593 10.7101C19.2627 10.7618 19.3768 10.7886 19.4924 10.7886H21.4167C21.6838 10.7886 21.9012 11.006 21.9012 11.2731L21.9017 12.9458Z" fill="#929292"/>
<path d="M15.4392 6.08419C15.4366 6.08289 15.4342 6.08138 15.4316 6.08008C15.4364 6.08289 15.4409 6.08571 15.4455 6.0883C15.4433 6.08701 15.4414 6.08549 15.4392 6.08419Z" fill="#929292"/>
<path d="M12.1095 7.67871C9.63032 7.67871 7.61328 9.69574 7.61328 12.1752C7.61328 14.6544 9.63032 16.6714 12.1095 16.6714C14.5887 16.6714 16.6057 14.6544 16.6057 12.1752C16.6057 9.69601 14.5887 7.67871 12.1095 7.67871ZM12.1095 15.1821C10.4517 15.1821 9.10291 13.8332 9.10291 12.1755C9.10291 10.5174 10.4517 9.16861 12.1095 9.16861C13.7673 9.16861 15.1161 10.5174 15.1161 12.1755C15.1161 13.8332 13.7673 15.1821 12.1095 15.1821Z" fill="#929292"/>
</svg>
