<svg width="31" height="31" viewBox="0 0 31 31" fill="none" xmlns="http://www.w3.org/2000/svg">
<path d="M15.9959 0C7.72545 0 0.996094 6.72935 0.996094 15.0017C0.996094 23.2722 7.72545 30.0015 15.9959 30.0015C24.2689 30.0015 30.9976 23.2722 30.9976 15.0017C30.9976 6.72874 24.2683 0 15.9959 0ZM25.898 22.4619C24.5986 21.144 21.4742 19.7122 15.9984 19.7122C10.5226 19.7122 7.3963 21.144 6.09448 22.4619C4.52374 20.3819 3.57949 17.8033 3.57949 15.0017C3.57949 8.15545 9.15019 2.58518 15.9966 2.58518C22.843 2.58518 28.4137 8.15588 28.4137 15.0023C28.4137 17.8035 27.4717 20.3812 25.8988 22.4619H25.898Z" fill="#929292"/>
<path d="M21.941 11.8484C21.941 15.1312 19.2797 17.7926 15.9969 17.7926C12.7141 17.7926 10.0527 15.1312 10.0527 11.8484C10.0527 8.56565 12.7141 5.9043 15.9969 5.9043C19.2797 5.9043 21.941 8.56565 21.941 11.8484Z" fill="#929292"/>
</svg>
